<?xml version="1.0" encoding="utf-8"?>
<!-- Generator: Adobe Illustrator 25.2.0, SVG Export Plug-In . SVG Version: 6.00 Build 0)  -->
<svg version="1.1" id="Layer_1" xmlns="http://www.w3.org/2000/svg" xmlns:xlink="http://www.w3.org/1999/xlink" x="0px" y="0px"
	 viewBox="0 0 743 719" style="enable-background:new 0 0 743 719;" xml:space="preserve">
<style type="text/css">
	.st0{opacity:0.9;stroke:#000000;stroke-miterlimit:10;}
	.st1{fill:#12B305;}
	.st2{fill:#FFED3C;}
	.st3{fill:#C54232;}
	.st4{fill:#1E8FFF;}
</style>
<path class="st0" d="M654.6,717.5H88.4c-48,0-86.9-38.9-86.9-86.9V88.4c0-48,38.9-86.9,86.9-86.9h566.1c48,0,86.9,38.9,86.9,86.9
	v542.1C741.5,678.6,702.6,717.5,654.6,717.5z"/>
<path class="st1" d="M90,64.9h244.5c17.6,0,31.9,13.9,31.9,31v227.6c0,17.1-14.3,31-31.9,31H90c-17.6,0-31.9-13.9-31.9-31V95.9
	C58,78.8,72.3,64.9,90,64.9z"/>
<path class="st2" d="M408.5,64.9H653c17.6,0,31.9,13.9,31.9,31v227.6c0,17.1-14.3,31-31.9,31H408.5c-17.6,0-31.9-13.9-31.9-31V95.9
	C376.6,78.8,390.9,64.9,408.5,64.9z"/>
<path class="st3" d="M90,364.4h244.5c17.6,0,31.9,13.9,31.9,31v227.6c0,17.1-14.3,31-31.9,31H90c-17.6,0-31.9-13.9-31.9-31V395.5
	C58,378.3,72.3,364.4,90,364.4z"/>
<path class="st4" d="M408.5,364.4H653c17.6,0,31.9,13.9,31.9,31v227.6c0,17.1-14.3,31-31.9,31H408.5c-17.6,0-31.9-13.9-31.9-31
	V395.5C376.6,378.3,390.9,364.4,408.5,364.4z"/>
</svg>
